<svg xmlns="http://www.w3.org/2000/svg" xmlns:xlink="http://www.w3.org/1999/xlink" width="500" zoomAndPan="magnify" viewBox="0 0 375 374.999991" height="500" preserveAspectRatio="xMidYMid meet" version="1.0"><defs><clipPath id="c53943d828"><path d="M 34.191406 23.769531 L 210 23.769531 L 210 128 L 34.191406 128 Z M 34.191406 23.769531 " clip-rule="nonzero"/></clipPath><clipPath id="8595fc8be4"><path d="M 34.191406 106 L 68 106 L 68 293 L 34.191406 293 Z M 34.191406 106 " clip-rule="nonzero"/></clipPath><clipPath id="26cfc079b2"><path d="M 111 168 L 198 168 L 198 351.519531 L 111 351.519531 Z M 111 168 " clip-rule="nonzero"/></clipPath><clipPath id="2d2468a513"><path d="M 253 92 L 340.941406 92 L 340.941406 275 L 253 275 Z M 253 92 " clip-rule="nonzero"/></clipPath><clipPath id="1f4390b90e"><path d="M 138 92 L 340.941406 92 L 340.941406 342 L 138 342 Z M 138 92 " clip-rule="nonzero"/></clipPath></defs><path fill="#000000" d="M 36.757812 108.96875 L 64.472656 125.085938 L 207.269531 42.558594 L 179.257812 26.441406 Z M 36.757812 108.96875 " fill-opacity="1" fill-rule="nonzero"/><g clip-path="url(#c53943d828)"><path d="M 177.980469 24.230469 C 178.375 24.003906 178.800781 23.886719 179.257812 23.886719 C 179.714844 23.886719 180.140625 24.003906 180.535156 24.230469 L 208.546875 40.347656 C 208.945312 40.574219 209.257812 40.886719 209.488281 41.285156 C 209.71875 41.679688 209.832031 42.109375 209.832031 42.566406 C 209.832031 43.027344 209.71875 43.453125 209.488281 43.851562 C 209.257812 44.246094 208.945312 44.558594 208.546875 44.785156 L 65.761719 127.304688 C 65.363281 127.535156 64.9375 127.652344 64.476562 127.652344 C 64.019531 127.652344 63.589844 127.535156 63.195312 127.304688 L 35.480469 111.167969 C 35.285156 111.054688 35.109375 110.921875 34.953125 110.761719 C 34.792969 110.601562 34.65625 110.425781 34.546875 110.230469 C 34.433594 110.039062 34.347656 109.832031 34.289062 109.617188 C 34.230469 109.398438 34.203125 109.179688 34.203125 108.953125 C 34.203125 108.730469 34.230469 108.507812 34.289062 108.292969 C 34.347656 108.074219 34.433594 107.871094 34.546875 107.675781 C 34.65625 107.480469 34.792969 107.304688 34.953125 107.144531 C 35.109375 106.988281 35.285156 106.851562 35.480469 106.738281 L 177.980469 24.222656 Z M 179.257812 29.40625 L 41.871094 108.96875 L 64.492188 122.121094 L 202.144531 42.566406 Z M 179.257812 29.40625 " fill-opacity="1" fill-rule="evenodd"/></g><path fill="#000000" d="M 36.757812 108.96875 L 36.757812 273.996094 L 64.78125 290.113281 L 64.472656 125.085938 L 36.757812 108.957031 Z M 36.757812 108.96875 " fill-opacity="1" fill-rule="nonzero"/><g clip-path="url(#8595fc8be4)"><path d="M 35.492188 106.738281 C 35.886719 106.511719 36.3125 106.398438 36.769531 106.398438 C 37.226562 106.398438 37.652344 106.511719 38.046875 106.738281 L 65.761719 122.867188 C 66.15625 123.09375 66.46875 123.40625 66.695312 123.800781 C 66.925781 124.195312 67.039062 124.621094 67.039062 125.074219 L 67.335938 290.113281 C 67.339844 290.574219 67.226562 291.003906 67 291.402344 C 66.773438 291.800781 66.460938 292.117188 66.0625 292.347656 C 65.664062 292.578125 65.234375 292.691406 64.777344 292.691406 C 64.316406 292.691406 63.886719 292.574219 63.492188 292.34375 L 35.492188 276.214844 C 35.09375 275.988281 34.777344 275.675781 34.546875 275.277344 C 34.316406 274.882812 34.203125 274.453125 34.203125 273.996094 L 34.203125 108.96875 C 34.203125 108.511719 34.316406 108.082031 34.546875 107.6875 C 34.777344 107.289062 35.09375 106.976562 35.492188 106.75 Z M 39.324219 113.417969 L 39.324219 272.511719 L 62.203125 285.683594 L 61.917969 126.558594 Z M 39.324219 113.417969 " fill-opacity="1" fill-rule="evenodd"/></g><path fill="transparent" d="M 64.472656 125.085938 L 207.269531 42.558594 L 207.269531 207.605469 L 64.769531 290.125 L 64.484375 125.074219 Z M 64.472656 125.085938 " fill-opacity="1" fill-rule="nonzero"/><path fill="transparent" d="M 208.546875 40.347656 C 208.941406 40.578125 209.253906 40.890625 209.484375 41.285156 C 209.710938 41.683594 209.824219 42.109375 209.824219 42.566406 L 209.824219 207.605469 C 209.824219 208.0625 209.707031 208.484375 209.480469 208.878906 C 209.253906 209.273438 208.941406 209.585938 208.546875 209.8125 L 66.058594 292.34375 C 65.664062 292.574219 65.234375 292.691406 64.777344 292.691406 C 64.316406 292.691406 63.890625 292.578125 63.492188 292.347656 C 63.09375 292.121094 62.78125 291.804688 62.554688 291.410156 C 62.324219 291.011719 62.210938 290.582031 62.214844 290.125 L 61.917969 125.085938 C 61.914062 124.628906 62.03125 124.203125 62.257812 123.804688 C 62.484375 123.410156 62.796875 123.097656 63.195312 122.867188 L 205.980469 40.347656 C 206.375 40.121094 206.800781 40.003906 207.257812 40.003906 C 207.714844 40.003906 208.140625 40.121094 208.535156 40.347656 Z M 67.03125 126.558594 L 67.335938 285.683594 L 204.710938 206.121094 L 204.710938 46.996094 L 67.0625 126.558594 Z M 67.03125 126.558594 " fill-opacity="1" fill-rule="evenodd"/><path fill="#000000" d="M 85.828125 137.203125 L 113.539062 153.332031 L 256.324219 70.804688 L 228.324219 54.6875 L 85.828125 137.214844 Z M 85.828125 137.203125 " fill-opacity="1" fill-rule="nonzero"/><path fill="transparent" d="M 227.035156 52.476562 C 227.429688 52.25 227.859375 52.132812 228.3125 52.132812 C 228.769531 52.132812 229.195312 52.25 229.59375 52.476562 L 257.613281 68.59375 C 258.011719 68.820312 258.324219 69.132812 258.554688 69.53125 C 258.785156 69.925781 258.902344 70.355469 258.902344 70.8125 C 258.902344 71.273438 258.785156 71.699219 258.554688 72.097656 C 258.324219 72.492188 258.011719 72.804688 257.613281 73.03125 L 114.828125 155.550781 C 114.429688 155.785156 114 155.898438 113.539062 155.898438 C 113.078125 155.898438 112.648438 155.785156 112.253906 155.550781 L 84.539062 139.425781 C 84.34375 139.3125 84.167969 139.175781 84.007812 139.015625 C 83.851562 138.859375 83.714844 138.683594 83.601562 138.488281 C 83.488281 138.292969 83.40625 138.089844 83.347656 137.871094 C 83.289062 137.65625 83.257812 137.433594 83.257812 137.210938 C 83.257812 136.984375 83.289062 136.765625 83.347656 136.546875 C 83.40625 136.332031 83.488281 136.125 83.601562 135.929688 C 83.714844 135.738281 83.851562 135.5625 84.007812 135.402344 C 84.167969 135.242188 84.34375 135.109375 84.539062 134.996094 L 227.035156 52.464844 Z M 228.324219 57.652344 L 90.929688 137.214844 L 113.550781 150.367188 L 251.203125 70.8125 Z M 228.324219 57.652344 " fill-opacity="1" fill-rule="evenodd"/><path fill="#000000" d="M 85.828125 137.203125 L 85.828125 302.253906 L 113.835938 318.371094 L 113.539062 153.34375 L 85.828125 137.214844 Z M 85.828125 137.203125 " fill-opacity="1" fill-rule="nonzero"/><path fill="transparent" d="M 84.546875 134.984375 C 84.945312 134.753906 85.371094 134.640625 85.832031 134.640625 C 86.289062 134.640625 86.71875 134.753906 87.113281 134.984375 L 114.828125 151.113281 C 115.222656 151.339844 115.535156 151.652344 115.765625 152.046875 C 115.992188 152.441406 116.105469 152.867188 116.109375 153.320312 L 116.394531 318.359375 C 116.398438 318.816406 116.285156 319.246094 116.058594 319.644531 C 115.828125 320.039062 115.519531 320.355469 115.121094 320.585938 C 114.726562 320.816406 114.300781 320.929688 113.839844 320.929688 C 113.382812 320.933594 112.957031 320.816406 112.558594 320.589844 L 84.546875 304.460938 C 84.152344 304.234375 83.839844 303.917969 83.609375 303.523438 C 83.382812 303.125 83.269531 302.699219 83.269531 302.242188 L 83.269531 137.203125 C 83.269531 136.746094 83.382812 136.320312 83.609375 135.921875 C 83.839844 135.527344 84.152344 135.214844 84.546875 134.984375 Z M 88.394531 141.664062 L 88.394531 300.757812 L 111.261719 313.929688 L 110.984375 154.804688 L 88.382812 141.664062 Z M 88.394531 141.664062 " fill-opacity="1" fill-rule="evenodd"/><path fill="transparent" d="M 113.539062 153.332031 L 256.324219 70.804688 L 256.324219 235.851562 L 113.835938 318.371094 Z M 113.539062 153.332031 " fill-opacity="1" fill-rule="nonzero"/><path fill="transparent" d="M 257.601562 68.59375 C 258 68.820312 258.316406 69.132812 258.546875 69.53125 C 258.777344 69.925781 258.890625 70.355469 258.890625 70.8125 L 258.890625 235.851562 C 258.890625 236.304688 258.777344 236.730469 258.546875 237.125 C 258.320312 237.519531 258.007812 237.832031 257.613281 238.058594 L 115.117188 320.589844 C 114.71875 320.820312 114.292969 320.9375 113.832031 320.9375 C 113.375 320.9375 112.945312 320.824219 112.550781 320.59375 C 112.152344 320.367188 111.839844 320.050781 111.609375 319.65625 C 111.382812 319.257812 111.269531 318.828125 111.269531 318.371094 L 110.984375 153.332031 C 110.984375 152.875 111.097656 152.449219 111.324219 152.050781 C 111.554688 151.65625 111.867188 151.339844 112.261719 151.113281 L 255.046875 68.59375 C 255.441406 68.367188 255.867188 68.25 256.324219 68.25 C 256.78125 68.25 257.207031 68.367188 257.601562 68.59375 Z M 116.117188 154.804688 L 116.394531 313.929688 L 253.777344 234.367188 L 253.777344 75.242188 Z M 116.117188 154.804688 " fill-opacity="1" fill-rule="evenodd"/><path fill="#000000" d="M 113.589844 180.945312 L 165.5625 348.578125 L 195.210938 338.875 L 141.171875 171.035156 Z M 113.589844 180.945312 " fill-opacity="1" fill-rule="nonzero"/><g clip-path="url(#26cfc079b2)"><path fill="transparent" d="M 142.296875 168.742188 C 142.953125 169.058594 143.394531 169.566406 143.617188 170.257812 L 197.644531 338.085938 C 197.75 338.410156 197.789062 338.738281 197.761719 339.078125 C 197.734375 339.414062 197.644531 339.734375 197.492188 340.035156 C 197.339844 340.335938 197.132812 340.597656 196.878906 340.820312 C 196.621094 341.039062 196.332031 341.203125 196.007812 341.308594 L 166.351562 351.011719 C 166.023438 351.121094 165.691406 351.160156 165.347656 351.132812 C 165.007812 351.105469 164.683594 351.011719 164.378906 350.855469 C 164.074219 350.695312 163.8125 350.488281 163.589844 350.222656 C 163.371094 349.960938 163.210938 349.664062 163.109375 349.335938 L 111.148438 181.699219 C 111.050781 181.386719 111.011719 181.0625 111.039062 180.734375 C 111.066406 180.40625 111.152344 180.09375 111.300781 179.796875 C 111.449219 179.5 111.648438 179.242188 111.894531 179.023438 C 112.140625 178.804688 112.421875 178.640625 112.734375 178.53125 L 140.3125 168.632812 C 140.992188 168.382812 141.65625 168.417969 142.308594 168.734375 Z M 116.773438 182.527344 L 167.242188 345.335938 L 191.988281 337.226562 L 139.535156 174.347656 L 116.761719 182.527344 Z M 116.773438 182.527344 " fill-opacity="1" fill-rule="evenodd"/></g><path fill="#000000" d="M 256.304688 104.671875 L 308.277344 272.308594 L 337.921875 262.605469 L 283.886719 94.773438 Z M 256.304688 104.671875 " fill-opacity="1" fill-rule="nonzero"/><g clip-path="url(#2d2468a513)"><path fill="transparent" d="M 285.019531 92.472656 C 285.671875 92.792969 286.109375 93.296875 286.328125 93.988281 L 340.355469 261.828125 C 340.460938 262.148438 340.5 262.476562 340.472656 262.8125 C 340.445312 263.148438 340.355469 263.46875 340.203125 263.769531 C 340.046875 264.070312 339.84375 264.332031 339.585938 264.550781 C 339.332031 264.769531 339.042969 264.933594 338.722656 265.039062 L 309.0625 274.742188 C 308.738281 274.847656 308.40625 274.886719 308.0625 274.859375 C 307.722656 274.832031 307.402344 274.738281 307.097656 274.578125 C 306.792969 274.421875 306.53125 274.210938 306.3125 273.949219 C 306.09375 273.6875 305.933594 273.390625 305.832031 273.066406 L 253.859375 105.429688 C 253.761719 105.113281 253.726562 104.792969 253.753906 104.464844 C 253.78125 104.132812 253.867188 103.820312 254.015625 103.527344 C 254.164062 103.230469 254.359375 102.972656 254.605469 102.753906 C 254.855469 102.535156 255.132812 102.371094 255.445312 102.261719 L 283.027344 92.359375 C 283.707031 92.117188 284.371094 92.152344 285.019531 92.472656 Z M 259.484375 106.257812 L 309.953125 269.066406 L 334.703125 260.96875 L 282.257812 98.078125 Z M 259.484375 106.257812 " fill-opacity="1" fill-rule="evenodd"/></g><path fill="#000000" d="M 141.171875 171.042969 L 283.886719 94.773438 L 337.933594 262.605469 L 195.222656 338.875 L 141.183594 171.035156 Z M 141.171875 171.042969 " fill-opacity="1" fill-rule="nonzero"/><g clip-path="url(#1f4390b90e)"><path fill="transparent" d="M 284.855469 92.402344 C 285.59375 92.699219 286.085938 93.230469 286.328125 93.988281 L 340.355469 261.828125 C 340.449219 262.113281 340.488281 262.402344 340.480469 262.703125 C 340.46875 263 340.40625 263.289062 340.292969 263.566406 C 340.183594 263.84375 340.027344 264.09375 339.824219 264.316406 C 339.625 264.539062 339.394531 264.722656 339.128906 264.863281 L 196.417969 341.132812 C 196.25 341.222656 196.078125 341.292969 195.898438 341.34375 C 195.71875 341.394531 195.53125 341.425781 195.34375 341.4375 C 195.15625 341.449219 194.972656 341.4375 194.785156 341.40625 C 194.601562 341.375 194.421875 341.324219 194.246094 341.253906 C 194.070312 341.183594 193.90625 341.097656 193.753906 340.992188 C 193.597656 340.882812 193.457031 340.761719 193.328125 340.625 C 193.199219 340.484375 193.089844 340.335938 192.996094 340.171875 C 192.898438 340.011719 192.824219 339.839844 192.765625 339.660156 L 138.738281 171.820312 C 138.648438 171.535156 138.605469 171.246094 138.617188 170.945312 C 138.628906 170.648438 138.691406 170.359375 138.800781 170.082031 C 138.914062 169.804688 139.070312 169.554688 139.269531 169.332031 C 139.46875 169.109375 139.703125 168.925781 139.964844 168.785156 L 282.679688 92.503906 C 283.382812 92.125 284.105469 92.082031 284.847656 92.382812 Z M 144.273438 172.292969 L 196.703125 335.171875 L 334.824219 261.355469 L 282.402344 98.476562 L 144.28125 172.292969 Z M 144.273438 172.292969 " fill-opacity="1" fill-rule="evenodd"/></g><path fill="#000000" d="M 141.171875 171.042969 L 113.589844 180.945312 L 256.304688 104.671875 L 283.886719 94.773438 L 141.171875 171.035156 Z M 141.171875 171.042969 " fill-opacity="1" fill-rule="nonzero"/><path fill="transparent" d="M 286.226562 93.730469 C 286.359375 94.027344 286.433594 94.335938 286.449219 94.660156 C 286.464844 94.984375 286.421875 95.296875 286.316406 95.605469 C 286.210938 95.910156 286.054688 96.1875 285.84375 96.433594 C 285.636719 96.683594 285.386719 96.882812 285.101562 97.035156 L 142.371094 173.292969 C 142.261719 173.355469 142.148438 173.40625 142.03125 173.449219 L 114.449219 183.359375 C 114.140625 183.496094 113.816406 183.566406 113.476562 183.574219 C 113.140625 183.582031 112.8125 183.527344 112.496094 183.40625 C 112.179688 183.28125 111.898438 183.105469 111.652344 182.871094 C 111.410156 182.636719 111.214844 182.367188 111.078125 182.058594 C 110.941406 181.746094 110.867188 181.421875 110.859375 181.085938 C 110.851562 180.746094 110.90625 180.417969 111.027344 180.101562 C 111.152344 179.785156 111.328125 179.503906 111.5625 179.257812 C 111.792969 179.015625 112.066406 178.820312 112.375 178.683594 L 255.097656 102.414062 C 255.210938 102.355469 255.324219 102.304688 255.445312 102.261719 L 283.027344 92.359375 C 283.332031 92.25 283.644531 92.203125 283.96875 92.210938 C 284.289062 92.222656 284.601562 92.289062 284.898438 92.417969 C 285.195312 92.542969 285.457031 92.722656 285.6875 92.949219 C 285.917969 93.175781 286.097656 93.4375 286.226562 93.730469 Z M 286.226562 93.730469 " fill-opacity="1" fill-rule="evenodd"/><path fill="#ffffff" d="M 222.320312 157.371094 L 212.699219 162.289062 L 203.085938 167.210938 L 195.292969 283.710938 L 214.210938 292.167969 L 228.632812 198.964844 L 304.050781 246.242188 L 310.105469 225.042969 Z M 222.320312 157.371094 " fill-opacity="1" fill-rule="nonzero"/><path fill="#ffffff" d="M 221.164062 155.089844 C 221.605469 154.867188 222.070312 154.777344 222.5625 154.824219 C 223.054688 154.871094 223.496094 155.046875 223.886719 155.347656 L 311.671875 223.007812 C 312.085938 223.328125 312.375 223.738281 312.535156 224.234375 C 312.699219 224.734375 312.707031 225.234375 312.5625 225.738281 L 306.527344 246.945312 C 306.472656 247.140625 306.398438 247.324219 306.300781 247.496094 C 306.207031 247.671875 306.089844 247.832031 305.957031 247.980469 C 305.820312 248.128906 305.671875 248.257812 305.507812 248.371094 C 305.34375 248.484375 305.167969 248.578125 304.980469 248.648438 C 304.792969 248.71875 304.601562 248.769531 304.40625 248.796875 C 304.207031 248.824219 304.007812 248.824219 303.808594 248.804688 C 303.609375 248.785156 303.417969 248.742188 303.226562 248.679688 C 303.039062 248.613281 302.859375 248.527344 302.691406 248.417969 L 230.5625 203.195312 L 216.746094 292.558594 C 216.71875 292.753906 216.667969 292.941406 216.59375 293.125 C 216.519531 293.308594 216.425781 293.480469 216.3125 293.640625 C 216.199219 293.800781 216.070312 293.949219 215.921875 294.078125 C 215.773438 294.210938 215.613281 294.324219 215.441406 294.417969 C 215.265625 294.511719 215.085938 294.585938 214.894531 294.636719 C 214.703125 294.6875 214.511719 294.71875 214.3125 294.726562 C 214.117188 294.734375 213.921875 294.71875 213.726562 294.679688 C 213.535156 294.640625 213.347656 294.582031 213.167969 294.5 L 194.25 286.054688 C 193.757812 285.835938 193.375 285.496094 193.097656 285.039062 C 192.820312 284.578125 192.699219 284.082031 192.734375 283.546875 L 200.527344 167.046875 C 200.554688 166.597656 200.691406 166.183594 200.9375 165.804688 C 201.183594 165.425781 201.507812 165.136719 201.910156 164.929688 Z M 205.539062 168.835938 L 197.972656 282.105469 L 212.1875 288.457031 L 226.09375 198.566406 C 226.128906 198.355469 226.183594 198.152344 226.265625 197.957031 C 226.347656 197.761719 226.453125 197.578125 226.582031 197.410156 C 226.710938 197.242188 226.855469 197.089844 227.019531 196.957031 C 227.1875 196.824219 227.363281 196.714844 227.558594 196.625 C 227.75 196.539062 227.953125 196.476562 228.160156 196.4375 C 228.367188 196.398438 228.578125 196.386719 228.789062 196.398438 C 229 196.414062 229.207031 196.453125 229.410156 196.519531 C 229.609375 196.582031 229.800781 196.671875 229.980469 196.785156 L 302.527344 242.261719 L 307.160156 226.003906 L 222.046875 160.398438 Z M 205.539062 168.835938 " fill-opacity="1" fill-rule="evenodd"/></svg>